<svg width="20" height="17" viewBox="0 0 20 17" fill="none" xmlns="http://www.w3.org/2000/svg">
<path d="M4 4.5H6V6.5H4V4.5Z" fill="url(#paint0_linear_1652_2501)"/>
<path d="M9 4.5H7V6.5H9V4.5Z" fill="url(#paint1_linear_1652_2501)"/>
<path d="M11 4.5H13V6.5H11V4.5Z" fill="url(#paint2_linear_1652_2501)"/>
<path d="M16 4.5H14V6.5H16V4.5Z" fill="url(#paint3_linear_1652_2501)"/>
<path d="M4 7.5H6V9.5H4V7.5Z" fill="url(#paint4_linear_1652_2501)"/>
<path d="M9 7.5H7V9.5H9V7.5Z" fill="url(#paint5_linear_1652_2501)"/>
<path d="M11 7.5H13V9.5H11V7.5Z" fill="url(#paint6_linear_1652_2501)"/>
<path d="M16 7.5H14V9.5H16V7.5Z" fill="url(#paint7_linear_1652_2501)"/>
<path d="M4 10.5H6V12.5H4V10.5Z" fill="url(#paint8_linear_1652_2501)"/>
<path d="M9 10.5H7V12.5H9V10.5Z" fill="url(#paint9_linear_1652_2501)"/>
<path d="M11 10.5H13V12.5H11V10.5Z" fill="url(#paint10_linear_1652_2501)"/>
<path d="M16 10.5H14V12.5H16V10.5Z" fill="url(#paint11_linear_1652_2501)"/>
<path fill-rule="evenodd" clip-rule="evenodd" d="M1 0.5C0.447715 0.5 0 0.947715 0 1.5V15.5C0 16.0523 0.447716 16.5 1 16.5H19C19.5523 16.5 20 16.0523 20 15.5V1.5C20 0.947715 19.5523 0.5 19 0.5H1ZM2 2.5V14.5H18V2.5H2Z" fill="url(#paint12_linear_1652_2501)"/>
<defs>
<linearGradient id="paint0_linear_1652_2501" x1="10" y1="0.5" x2="10" y2="16.5" gradientUnits="userSpaceOnUse">
<stop/>
<stop offset="1" stop-opacity="0.5"/>
</linearGradient>
<linearGradient id="paint1_linear_1652_2501" x1="10" y1="0.5" x2="10" y2="16.5" gradientUnits="userSpaceOnUse">
<stop/>
<stop offset="1" stop-opacity="0.5"/>
</linearGradient>
<linearGradient id="paint2_linear_1652_2501" x1="10" y1="0.5" x2="10" y2="16.5" gradientUnits="userSpaceOnUse">
<stop/>
<stop offset="1" stop-opacity="0.5"/>
</linearGradient>
<linearGradient id="paint3_linear_1652_2501" x1="10" y1="0.5" x2="10" y2="16.5" gradientUnits="userSpaceOnUse">
<stop/>
<stop offset="1" stop-opacity="0.5"/>
</linearGradient>
<linearGradient id="paint4_linear_1652_2501" x1="10" y1="0.5" x2="10" y2="16.5" gradientUnits="userSpaceOnUse">
<stop/>
<stop offset="1" stop-opacity="0.5"/>
</linearGradient>
<linearGradient id="paint5_linear_1652_2501" x1="10" y1="0.5" x2="10" y2="16.5" gradientUnits="userSpaceOnUse">
<stop/>
<stop offset="1" stop-opacity="0.5"/>
</linearGradient>
<linearGradient id="paint6_linear_1652_2501" x1="10" y1="0.5" x2="10" y2="16.5" gradientUnits="userSpaceOnUse">
<stop/>
<stop offset="1" stop-opacity="0.5"/>
</linearGradient>
<linearGradient id="paint7_linear_1652_2501" x1="10" y1="0.5" x2="10" y2="16.5" gradientUnits="userSpaceOnUse">
<stop/>
<stop offset="1" stop-opacity="0.5"/>
</linearGradient>
<linearGradient id="paint8_linear_1652_2501" x1="10" y1="0.5" x2="10" y2="16.5" gradientUnits="userSpaceOnUse">
<stop/>
<stop offset="1" stop-opacity="0.5"/>
</linearGradient>
<linearGradient id="paint9_linear_1652_2501" x1="10" y1="0.5" x2="10" y2="16.5" gradientUnits="userSpaceOnUse">
<stop/>
<stop offset="1" stop-opacity="0.5"/>
</linearGradient>
<linearGradient id="paint10_linear_1652_2501" x1="10" y1="0.5" x2="10" y2="16.5" gradientUnits="userSpaceOnUse">
<stop/>
<stop offset="1" stop-opacity="0.5"/>
</linearGradient>
<linearGradient id="paint11_linear_1652_2501" x1="10" y1="0.5" x2="10" y2="16.5" gradientUnits="userSpaceOnUse">
<stop/>
<stop offset="1" stop-opacity="0.5"/>
</linearGradient>
<linearGradient id="paint12_linear_1652_2501" x1="10" y1="0.5" x2="10" y2="16.5" gradientUnits="userSpaceOnUse">
<stop/>
<stop offset="1" stop-opacity="0.5"/>
</linearGradient>
</defs>
</svg>
