<svg width="18" height="20" viewBox="0 0 18 20" fill="none" xmlns="http://www.w3.org/2000/svg">
<path d="M9 11.501C8.82845 11.501 8.65967 11.4733 8.49365 11.418C8.32764 11.3626 8.14225 11.2769 7.9375 11.1606L1.44629 7.39209C1.10872 7.19287 0.868001 7.01025 0.724121 6.84424C0.585775 6.67269 0.516602 6.4707 0.516602 6.23828C0.516602 6.01139 0.585775 5.81494 0.724121 5.64893C0.868001 5.47738 1.10872 5.29199 1.44629 5.09277L7.9375 1.32422C8.14225 1.20801 8.32764 1.12223 8.49365 1.06689C8.65967 1.01156 8.82845 0.983887 9 0.983887C9.16602 0.983887 9.33203 1.01156 9.49805 1.06689C9.6696 1.12223 9.85498 1.20801 10.0542 1.32422L16.5454 5.09277C16.883 5.29199 17.1209 5.47738 17.2593 5.64893C17.4032 5.81494 17.4751 6.01139 17.4751 6.23828C17.4751 6.4707 17.4032 6.67269 17.2593 6.84424C17.1209 7.01025 16.883 7.19287 16.5454 7.39209L10.0542 11.1606C9.85498 11.2769 9.6696 11.3626 9.49805 11.418C9.33203 11.4733 9.16602 11.501 9 11.501ZM9 15.5933C8.84505 15.5933 8.6984 15.5601 8.56006 15.4937C8.42171 15.4272 8.264 15.3442 8.08691 15.2446L0.964844 11.0361C0.809896 10.9421 0.693685 10.8314 0.616211 10.7041C0.544271 10.5713 0.508301 10.4412 0.508301 10.314C0.508301 10.1424 0.558105 9.993 0.657715 9.86572C0.762858 9.73291 0.873535 9.63883 0.989746 9.5835L8.67627 14.0244C8.73714 14.0576 8.79248 14.0853 8.84229 14.1074C8.89762 14.1296 8.9502 14.1406 9 14.1406C9.04427 14.1406 9.09131 14.1296 9.14111 14.1074C9.19645 14.0853 9.25456 14.0576 9.31543 14.0244L17.002 9.5835C17.1182 9.63883 17.2261 9.73291 17.3257 9.86572C17.4308 9.993 17.4834 10.1424 17.4834 10.314C17.4834 10.4412 17.4474 10.5713 17.3755 10.7041C17.3035 10.8314 17.1901 10.9421 17.0352 11.0361L9.90479 15.2446C9.7277 15.3442 9.56999 15.4272 9.43164 15.4937C9.29329 15.5601 9.14941 15.5933 9 15.5933ZM9 19.4116C8.84505 19.4116 8.6984 19.3784 8.56006 19.312C8.42171 19.2511 8.264 19.1681 8.08691 19.063L0.964844 14.8545C0.809896 14.766 0.693685 14.658 0.616211 14.5308C0.544271 14.3979 0.508301 14.2651 0.508301 14.1323C0.508301 13.9663 0.558105 13.8197 0.657715 13.6924C0.762858 13.5596 0.873535 13.4627 0.989746 13.4019L8.67627 17.8511C8.73714 17.8843 8.79248 17.9119 8.84229 17.9341C8.89762 17.9562 8.9502 17.9673 9 17.9673C9.04427 17.9673 9.09131 17.9562 9.14111 17.9341C9.19645 17.9119 9.25456 17.8843 9.31543 17.8511L17.002 13.4019C17.1182 13.4627 17.2261 13.5596 17.3257 13.6924C17.4308 13.8197 17.4834 13.9663 17.4834 14.1323C17.4834 14.2651 17.4447 14.3979 17.3672 14.5308C17.2952 14.658 17.1846 14.766 17.0352 14.8545L9.90479 19.063C9.7277 19.1681 9.56999 19.2511 9.43164 19.312C9.29329 19.3784 9.14941 19.4116 9 19.4116Z" fill="url(#paint0_linear_1704_155)"/>
<defs>
<linearGradient id="paint0_linear_1704_155" x1="-2" y1="0" x2="19.1948" y2="24.9795" gradientUnits="userSpaceOnUse">
<stop stop-color="white"/>
<stop offset="1" stop-color="white" stop-opacity="0"/>
</linearGradient>
</defs>
</svg>
