<svg width="17" height="17" viewBox="0 0 17 17" fill="none" xmlns="http://www.w3.org/2000/svg">
<path opacity="0.5" d="M8.5 16.9736C7.34342 16.9736 6.25326 16.7523 5.22949 16.3096C4.21126 15.8669 3.31201 15.2554 2.53174 14.4751C1.75146 13.6948 1.13997 12.7956 0.697266 11.7773C0.254557 10.7536 0.0332031 9.66341 0.0332031 8.50684C0.0332031 7.35026 0.254557 6.26286 0.697266 5.24463C1.13997 4.22087 1.7487 3.31885 2.52344 2.53857C3.30371 1.7583 4.20296 1.14681 5.22119 0.704102C6.24495 0.261393 7.33512 0.0400391 8.4917 0.0400391C9.64827 0.0400391 10.7384 0.261393 11.7622 0.704102C12.786 1.14681 13.688 1.7583 14.4683 2.53857C15.2485 3.31885 15.86 4.22087 16.3027 5.24463C16.7454 6.26286 16.9668 7.35026 16.9668 8.50684C16.9668 9.66341 16.7454 10.7536 16.3027 11.7773C15.86 12.7956 15.2485 13.6948 14.4683 14.4751C13.688 15.2554 12.786 15.8669 11.7622 16.3096C10.744 16.7523 9.65658 16.9736 8.5 16.9736ZM8.5 15.5625C9.47949 15.5625 10.3953 15.3799 11.2476 15.0146C12.0998 14.6494 12.8496 14.1458 13.4971 13.5039C14.1445 12.8564 14.6481 12.1066 15.0078 11.2544C15.373 10.4022 15.5557 9.48633 15.5557 8.50684C15.5557 7.52734 15.373 6.61149 15.0078 5.75928C14.6426 4.90706 14.1362 4.15723 13.4888 3.50977C12.8468 2.8623 12.097 2.35872 11.2393 1.99902C10.387 1.63379 9.47119 1.45117 8.4917 1.45117C7.51221 1.45117 6.59635 1.63379 5.74414 1.99902C4.89193 2.35872 4.14486 2.8623 3.50293 3.50977C2.861 4.15723 2.35742 4.90706 1.99219 5.75928C1.63249 6.61149 1.45264 7.52734 1.45264 8.50684C1.45264 9.48633 1.63249 10.4022 1.99219 11.2544C2.35742 12.1066 2.861 12.8564 3.50293 13.5039C4.15039 14.1458 4.90023 14.6494 5.75244 15.0146C6.60465 15.3799 7.52051 15.5625 8.5 15.5625ZM6.94775 11.7524C6.75407 11.8687 6.56592 11.8908 6.3833 11.8188C6.20622 11.7414 6.11768 11.6003 6.11768 11.3955L6.11768 5.62646C6.11768 5.42725 6.21175 5.29167 6.3999 5.21973C6.58805 5.14779 6.77067 5.16439 6.94775 5.26953L11.6792 8.0752C11.8452 8.1748 11.9282 8.32145 11.9282 8.51514C11.9338 8.70882 11.8507 8.85824 11.6792 8.96338L6.94775 11.7524Z" fill="url(#paint0_linear_1704_587)"/>
<defs>
<linearGradient id="paint0_linear_1704_587" x1="-1.5" y1="-1.5" x2="19.9305" y2="21.4612" gradientUnits="userSpaceOnUse">
<stop/>
<stop offset="1" stop-opacity="0.5"/>
</linearGradient>
</defs>
</svg>
