<svg width="18" height="19" viewBox="0 0 18 19" fill="none" xmlns="http://www.w3.org/2000/svg">
<path opacity="0.5" d="M9 11.001C8.82845 11.001 8.65967 10.9733 8.49365 10.918C8.32764 10.8626 8.14225 10.7769 7.9375 10.6606L1.44629 6.89209C1.10872 6.69287 0.868001 6.51025 0.724121 6.34424C0.585775 6.17269 0.516602 5.9707 0.516602 5.73828C0.516602 5.51139 0.585775 5.31494 0.724121 5.14893C0.868001 4.97738 1.10872 4.79199 1.44629 4.59277L7.9375 0.824219C8.14225 0.708008 8.32764 0.622233 8.49365 0.566895C8.65967 0.511556 8.82845 0.483887 9 0.483887C9.16602 0.483887 9.33203 0.511556 9.49805 0.566895C9.6696 0.622233 9.85498 0.708008 10.0542 0.824219L16.5454 4.59277C16.883 4.79199 17.1209 4.97738 17.2593 5.14893C17.4032 5.31494 17.4751 5.51139 17.4751 5.73828C17.4751 5.9707 17.4032 6.17269 17.2593 6.34424C17.1209 6.51025 16.883 6.69287 16.5454 6.89209L10.0542 10.6606C9.85498 10.7769 9.6696 10.8626 9.49805 10.918C9.33203 10.9733 9.16602 11.001 9 11.001ZM9 15.0933C8.84505 15.0933 8.6984 15.0601 8.56006 14.9937C8.42171 14.9272 8.264 14.8442 8.08691 14.7446L0.964844 10.5361C0.809896 10.4421 0.693685 10.3314 0.616211 10.2041C0.544271 10.0713 0.508301 9.94124 0.508301 9.81396C0.508301 9.64242 0.558105 9.493 0.657715 9.36572C0.762858 9.23291 0.873535 9.13883 0.989746 9.0835L8.67627 13.5244C8.73714 13.5576 8.79248 13.5853 8.84229 13.6074C8.89762 13.6296 8.9502 13.6406 9 13.6406C9.04427 13.6406 9.09131 13.6296 9.14111 13.6074C9.19645 13.5853 9.25456 13.5576 9.31543 13.5244L17.002 9.0835C17.1182 9.13883 17.2261 9.23291 17.3257 9.36572C17.4308 9.493 17.4834 9.64242 17.4834 9.81396C17.4834 9.94124 17.4474 10.0713 17.3755 10.2041C17.3035 10.3314 17.1901 10.4421 17.0352 10.5361L9.90479 14.7446C9.7277 14.8442 9.56999 14.9272 9.43164 14.9937C9.29329 15.0601 9.14941 15.0933 9 15.0933ZM9 18.9116C8.84505 18.9116 8.6984 18.8784 8.56006 18.812C8.42171 18.7511 8.264 18.6681 8.08691 18.563L0.964844 14.3545C0.809896 14.266 0.693685 14.158 0.616211 14.0308C0.544271 13.8979 0.508301 13.7651 0.508301 13.6323C0.508301 13.4663 0.558105 13.3197 0.657715 13.1924C0.762858 13.0596 0.873535 12.9627 0.989746 12.9019L8.67627 17.3511C8.73714 17.3843 8.79248 17.4119 8.84229 17.4341C8.89762 17.4562 8.9502 17.4673 9 17.4673C9.04427 17.4673 9.09131 17.4562 9.14111 17.4341C9.19645 17.4119 9.25456 17.3843 9.31543 17.3511L17.002 12.9019C17.1182 12.9627 17.2261 13.0596 17.3257 13.1924C17.4308 13.3197 17.4834 13.4663 17.4834 13.6323C17.4834 13.7651 17.4447 13.8979 17.3672 14.0308C17.2952 14.158 17.1846 14.266 17.0352 14.3545L9.90479 18.563C9.7277 18.6681 9.56999 18.7511 9.43164 18.812C9.29329 18.8784 9.14941 18.9116 9 18.9116Z" fill="url(#paint0_linear_1704_481)"/>
<defs>
<linearGradient id="paint0_linear_1704_481" x1="-2" y1="-0.5" x2="19.1948" y2="24.4795" gradientUnits="userSpaceOnUse">
<stop/>
<stop offset="1" stop-opacity="0.5"/>
</linearGradient>
</defs>
</svg>
