<svg width="18" height="18" viewBox="0 0 18 18" fill="none" xmlns="http://www.w3.org/2000/svg">
<path fill-rule="evenodd" clip-rule="evenodd" d="M3.39802 0.588592C2.62068 -0.196197 1.36035 -0.196197 0.583008 0.588592C-0.194336 1.37338 -0.194336 2.64577 0.583008 3.43056L14.602 17.4114C15.3793 18.1962 16.6397 18.1962 17.417 17.4114C18.1943 16.6266 18.1943 15.3542 17.417 14.5694L3.39802 0.588592ZM4.3329 3.66391C4.13857 3.46771 3.82349 3.46771 3.62915 3.66391C3.43481 3.86011 3.43481 4.17821 3.62915 4.3744L13.4817 14.3213C13.676 14.5175 13.9911 14.5175 14.1854 14.3213C14.3798 14.1251 14.3798 13.807 14.1854 13.6108L4.3329 3.66391Z" fill="url(#paint0_linear_1671_1766)"/>
<path d="M14.8975 0.0742015C14.93 -0.0247339 15.07 -0.0247338 15.1025 0.0742017L15.7842 2.14699C15.7949 2.17954 15.8205 2.20508 15.853 2.21579L17.9258 2.89749C18.0247 2.93002 18.0247 3.06998 17.9258 3.10252L15.853 3.78422C15.8205 3.79492 15.7949 3.82046 15.7842 3.85301L15.1025 5.9258C15.07 6.02473 14.93 6.02473 14.8975 5.9258L14.2158 3.85301C14.2051 3.82046 14.1795 3.79492 14.147 3.78422L12.0742 3.10252C11.9753 3.06998 11.9753 2.93002 12.0742 2.89749L14.147 2.21579C14.1795 2.20508 14.2051 2.17954 14.2158 2.14699L14.8975 0.0742015Z" fill="url(#paint1_linear_1671_1766)"/>
<path d="M2.89749 12.0742C2.93002 11.9753 3.06998 11.9753 3.10252 12.0742L3.78422 14.147C3.79492 14.1795 3.82046 14.2051 3.85301 14.2158L5.9258 14.8975C6.02473 14.93 6.02473 15.07 5.9258 15.1025L3.85301 15.7842C3.82046 15.7949 3.79492 15.8205 3.78422 15.853L3.10252 17.9258C3.06998 18.0247 2.93002 18.0247 2.89749 17.9258L2.21579 15.853C2.20508 15.8205 2.17954 15.7949 2.14699 15.7842L0.0742015 15.1025C-0.0247339 15.07 -0.0247338 14.93 0.0742017 14.8975L2.14699 14.2158C2.17954 14.2051 2.20508 14.1795 2.21579 14.147L2.89749 12.0742Z" fill="url(#paint2_linear_1671_1766)"/>
<defs>
<linearGradient id="paint0_linear_1671_1766" x1="0" y1="0" x2="19.2874" y2="20.6651" gradientUnits="userSpaceOnUse">
<stop stop-color="white"/>
<stop offset="1" stop-color="white" stop-opacity="0"/>
</linearGradient>
<linearGradient id="paint1_linear_1671_1766" x1="0" y1="0" x2="19.2874" y2="20.6651" gradientUnits="userSpaceOnUse">
<stop stop-color="white"/>
<stop offset="1" stop-color="white" stop-opacity="0"/>
</linearGradient>
<linearGradient id="paint2_linear_1671_1766" x1="0" y1="0" x2="19.2874" y2="20.6651" gradientUnits="userSpaceOnUse">
<stop stop-color="white"/>
<stop offset="1" stop-color="white" stop-opacity="0"/>
</linearGradient>
</defs>
</svg>
