<svg width="21" height="20" viewBox="0 0 21 20" fill="none" xmlns="http://www.w3.org/2000/svg">
<path fill-rule="evenodd" clip-rule="evenodd" d="M14.1489 0.328301C14.5004 -0.0231707 15.0702 -0.0231707 15.4217 0.328301L20.4217 5.3283C20.7732 5.67977 20.7732 6.24962 20.4217 6.60109C20.0702 6.95257 19.5004 6.95257 19.1489 6.60109L14.1489 1.60109C13.7974 1.24962 13.7974 0.679773 14.1489 0.328301ZM8.24998 2.9001C5.15718 2.9001 2.64998 5.4073 2.64998 8.5001C2.64998 11.5929 5.15718 14.1001 8.24998 14.1001C8.39541 14.1001 8.53938 14.0946 8.68171 14.0837C9.87342 13.9931 10.9605 13.5296 11.8281 12.8081C12.1917 12.5057 12.7273 12.5363 13.0541 12.8781L16.4005 16.3781C16.744 16.7374 16.7312 17.3071 16.3719 17.6506C16.0127 17.9941 15.443 17.9813 15.0995 17.6221L12.3001 14.6942C11.7663 15.0439 11.1842 15.3266 10.5662 15.5301L13.3879 18.3652C13.7385 18.7175 13.7372 19.2874 13.3849 19.638C13.0326 19.9886 12.4627 19.9873 12.1121 19.635L8.39343 15.8987C8.34571 15.8996 8.29789 15.9001 8.24998 15.9001C4.16307 15.9001 0.849976 12.587 0.849976 8.5001C0.849976 4.41319 4.16307 1.1001 8.24998 1.1001C9.71569 1.1001 11.0844 1.52716 12.2352 2.26395C12.4303 2.38883 12.6859 2.60511 12.9446 2.83599C13.2195 3.08127 13.5491 3.38998 13.9095 3.7357C14.6309 4.42786 15.4936 5.28604 16.3205 6.11979C17.1483 6.95439 17.9439 7.76824 18.5323 8.37318C18.8266 8.67574 19.0693 8.92622 19.2384 9.10115L19.4343 9.30397L19.4859 9.3574L19.4991 9.37116L19.5025 9.37468L19.5034 9.37559L19.5036 9.37582C19.5037 9.37588 19.5037 9.37592 18.8553 10.0001L18.2069 10.6242L18.2067 10.624L18.2059 10.6232L18.2027 10.6198L18.1897 10.6064L18.1389 10.5537L17.9445 10.3524C17.7764 10.1786 17.5349 9.92937 17.242 9.62825C16.6561 9.02585 15.8648 8.21643 15.0425 7.38733C14.2194 6.5574 13.3688 5.71146 12.6633 5.03457C12.3102 4.69576 11.9979 4.40372 11.7461 4.17895C11.4781 3.93978 11.3222 3.81671 11.2647 3.77988C10.3949 3.22303 9.36154 2.9001 8.24998 2.9001ZM19.4795 10.6485C19.1214 10.9932 18.5517 10.9824 18.2069 10.6243L18.8553 10.0001L19.5037 9.37592C19.8484 9.73401 19.8376 10.3038 19.4795 10.6485Z" fill="url(#paint0_linear_1671_1785)"/>
<path d="M8.5 12C6.567 12 5 10.433 5 8.5C5 6.567 6.567 5 8.5 5C9.47934 5 10.3647 5.40223 11 6.05051L18 13" stroke="url(#paint1_linear_1671_1785)" stroke-width="1.8" stroke-linecap="round"/>
<defs>
<linearGradient id="paint0_linear_1671_1785" x1="0.849976" y1="0.0646973" x2="22.1041" y2="22.8369" gradientUnits="userSpaceOnUse">
<stop stop-color="white"/>
<stop offset="1" stop-color="white" stop-opacity="0"/>
</linearGradient>
<linearGradient id="paint1_linear_1671_1785" x1="5" y1="5" x2="12.422" y2="17.9223" gradientUnits="userSpaceOnUse">
<stop stop-color="white"/>
<stop offset="1" stop-color="white" stop-opacity="0"/>
</linearGradient>
</defs>
</svg>
