<svg width="30" height="31" viewBox="0 0 30 31" fill="none" xmlns="http://www.w3.org/2000/svg">
<path fill-rule="evenodd" clip-rule="evenodd" d="M13.649 29.7521C13.2803 29.6057 12.7026 29.3763 6.3004 23.5183C2.55662 20.09 0.57753 18.1668 0.379621 17.7487C0.222246 17.4473 0.0464717 16.9913 0 15.7498C0 14.9998 0 12.7498 0.0167907 9.77176C0.013415 8.10872 0.0094797 6.84009 0.00627251 5.80618C0.00269356 4.65242 2.12909e-05 3.79095 4.50497e-05 2.99986C7.69012e-05 1.93932 0.47159 1.52722 0.923873 1.52722C1.49999 1.52722 1.69902 1.69444 3.81005 3.68451C4.19884 4.0488 4.5803 4.40714 4.92987 4.73553C5.75167 5.50754 6.39737 6.11411 6.54778 6.24317L6.92711 6.57763L8.11456 5.40701C10.7204 2.81491 13.2107 0.62416 13.8869 0.323142C15.2228 -0.295617 16.4927 -0.0280416 17.8451 1.14258C18.3 1.52695 20.6645 3.72052 23.2985 6.16397L23.9968 6.81175C27.4272 10.0059 29.3377 11.8507 29.6372 12.3973C29.9037 12.8838 29.9998 13.4998 29.9998 14.2498L30 29.3056C29.9999 29.689 29.6891 29.9997 29.3057 29.9997C28.8074 29.9997 28.274 29.7925 27.9068 29.4557L24.4421 26.2776L22.2651 24.2206L19.5108 26.7793C18.01 28.184 16.5752 29.455 16.3278 29.6055C15.6351 30.057 14.4916 30.1336 13.7385 29.7895C13.708 29.7755 13.6792 29.7641 13.649 29.7521ZM17 6.99988L24 13.5C24.6321 14.0689 25 14.4856 25 15.3361V18.5C25 19.3284 24.3284 20 23.5 20C22.6716 20 22 19.3284 22 18.5V15.8721C22 15.3941 21.5624 15.0038 21.1806 14.6632C21.1182 14.6075 21.0573 14.5532 21 14.5L16 9.99998C15.4235 9.46466 14.5596 8.80958 13.7286 9.64061C13.083 10.2861 13.1868 11.0493 13.7286 11.625L19.5 17C20.6113 18.1807 20.0885 19.9114 18.942 21.058L17.0126 22.9874C15.8844 24.1156 14.0704 24.1633 12.8844 23.0959L5.66207 16.5958C5.24064 16.2166 5 15.6762 5 15.1092V12.5C5 11.6715 5.67157 11 6.5 11C7.32843 11 8 11.6715 8 12.5V14.5639C8 14.842 8.11578 15.1075 8.31955 15.2967L13.7286 20.3194C14.4382 20.9783 15.5421 20.9579 16.2269 20.2731C16.93 19.57 17 18.5 16.2269 17.7268L11 13C9.79227 11.7922 10.0506 9.53688 11.3097 8.38275L12.9913 6.84125C14.1306 5.79697 15.8513 5.96604 17 6.99988Z" fill="url(#paint0_linear_1652_2353)"/>
<defs>
<linearGradient id="paint0_linear_1652_2353" x1="15" y1="-0.00012207" x2="15" y2="30.0038" gradientUnits="userSpaceOnUse">
<stop stop-color="white"/>
<stop offset="1" stop-color="white" stop-opacity="0.5"/>
</linearGradient>
</defs>
</svg>
