<svg width="97" height="102" viewBox="0 0 97 102" fill="none" xmlns="http://www.w3.org/2000/svg">
<g filter="url(#filter0_d_1652_2485)">
<path d="M40.5 68.3812C43.4144 70.0638 44.8716 70.9052 46.4209 71.2345C47.7916 71.5258 49.2084 71.5258 50.5791 71.2345C52.1283 70.9052 53.5856 70.0638 56.5 68.3812L68.2128 61.6188C71.1272 59.9362 72.5845 59.0948 73.6443 57.9178C74.582 56.8764 75.2903 55.6495 75.7234 54.3167C76.2128 52.8103 76.2128 51.1277 76.2128 47.7624V34.2376C76.2128 30.8723 76.2128 29.1897 75.7234 27.6833C75.2903 26.3505 74.582 25.1236 73.6443 24.0822C72.5845 22.9052 71.1272 22.0638 68.2128 20.3812L56.5 13.6188C53.5856 11.9362 52.1283 11.0948 50.5791 10.7655C49.2084 10.4742 47.7916 10.4742 46.4209 10.7655C44.8716 11.0948 43.4144 11.9362 40.5 13.6188L28.7872 20.3812C25.8728 22.0638 24.4155 22.9052 23.3557 24.0822C22.418 25.1236 21.7097 26.3505 21.2766 27.6833C20.7872 29.1897 20.7872 30.8723 20.7872 34.2376V47.7624C20.7872 51.1277 20.7872 52.8103 21.2766 54.3167C21.7097 55.6495 22.418 56.8764 23.3557 57.9178C24.4155 59.0948 25.8728 59.9362 28.7872 61.6188L40.5 68.3812Z" fill="url(#paint0_linear_1652_2485)" shape-rendering="crispEdges"/>
<path d="M40.5 68.3812C43.4144 70.0638 44.8716 70.9052 46.4209 71.2345C47.7916 71.5258 49.2084 71.5258 50.5791 71.2345C52.1283 70.9052 53.5856 70.0638 56.5 68.3812L68.2128 61.6188C71.1272 59.9362 72.5845 59.0948 73.6443 57.9178C74.582 56.8764 75.2903 55.6495 75.7234 54.3167C76.2128 52.8103 76.2128 51.1277 76.2128 47.7624V34.2376C76.2128 30.8723 76.2128 29.1897 75.7234 27.6833C75.2903 26.3505 74.582 25.1236 73.6443 24.0822C72.5845 22.9052 71.1272 22.0638 68.2128 20.3812L56.5 13.6188C53.5856 11.9362 52.1283 11.0948 50.5791 10.7655C49.2084 10.4742 47.7916 10.4742 46.4209 10.7655C44.8716 11.0948 43.4144 11.9362 40.5 13.6188L28.7872 20.3812C25.8728 22.0638 24.4155 22.9052 23.3557 24.0822C22.418 25.1236 21.7097 26.3505 21.2766 27.6833C20.7872 29.1897 20.7872 30.8723 20.7872 34.2376V47.7624C20.7872 51.1277 20.7872 52.8103 21.2766 54.3167C21.7097 55.6495 22.418 56.8764 23.3557 57.9178C24.4155 59.0948 25.8728 59.9362 28.7872 61.6188L40.5 68.3812Z" stroke="url(#paint1_linear_1652_2485)" stroke-opacity="0.6" style="mix-blend-mode:overlay" shape-rendering="crispEdges"/>
</g>
<path d="M40.2812 48.4063C37.8203 48.4063 36.6016 47.1875 36.6016 44.7734L36.6016 32.9141C36.6016 30.5 37.8203 29.2813 40.2812 29.2813L52.0469 29.2813C54.4844 29.2813 55.7148 30.5 55.7148 32.9141L55.7148 34.707L57.7305 34.707C60.168 34.707 61.3984 35.9258 61.3984 38.3398L61.3984 50.1992C61.3984 52.6133 60.168 53.832 57.7305 53.832L45.9648 53.832C43.5039 53.832 42.2852 52.6133 42.2852 50.1992L42.2852 48.4063L40.2812 48.4063ZM40.3047 46.5195L42.2852 46.5195L42.2852 38.3398C42.2852 35.9141 43.5039 34.707 45.9648 34.707L53.8281 34.707L53.8281 33.0195C53.8281 31.8008 53.1719 31.168 52.0117 31.168L40.3047 31.168C39.1328 31.168 38.4883 31.8008 38.4883 33.0195L38.4883 44.668C38.4883 45.8867 39.1328 46.5195 40.3047 46.5195ZM52.457 49.1328C52.668 49.1328 52.832 48.9688 52.8906 48.7461C53.5586 45.1953 53.8867 44.5273 57.5781 44.0352C57.8125 44.0117 57.9766 43.8242 57.9766 43.5898C57.9766 43.3672 57.8125 43.1914 57.5781 43.1563C53.8984 42.6523 53.4062 41.9492 52.8906 38.4688C52.8437 38.2344 52.668 38.0586 52.457 38.0586C52.2227 38.0586 52.0586 38.2227 51.9883 38.457C51.332 42.0195 51.0039 42.6523 47.3242 43.1563C47.0781 43.1914 46.9141 43.3672 46.9141 43.5898C46.9141 43.8242 47.0781 44 47.3242 44.0352C51.0156 44.4102 51.4844 45.1953 51.9883 48.7344C52.0352 48.9688 52.1992 49.1328 52.457 49.1328ZM47.6875 51.1016C47.8633 51.1016 47.9922 50.9961 48.0391 50.832C48.3555 49.0625 48.2383 48.9922 50.1602 48.6992C50.3242 48.6641 50.4531 48.5352 50.4531 48.3711C50.4531 48.1953 50.3242 48.0664 50.1602 48.043C48.25 47.7148 48.3555 47.6328 48.0391 45.9219C47.9922 45.7461 47.875 45.6172 47.6875 45.6172C47.5234 45.6172 47.4062 45.7344 47.3477 45.9219C47.0078 47.6328 47.1602 47.7148 45.2383 48.043C45.0625 48.0664 44.9453 48.1953 44.9453 48.3711C44.9453 48.5586 45.0625 48.6641 45.2617 48.6992C47.1602 48.9922 47.0078 49.0625 47.3477 50.7969C47.4062 50.9844 47.5117 51.1016 47.6875 51.1016Z" fill="url(#paint2_linear_1652_2485)"/>
<defs>
<filter id="filter0_d_1652_2485" x="0.287231" y="0.0469971" width="96.4255" height="101.906" filterUnits="userSpaceOnUse" color-interpolation-filters="sRGB">
<feFlood flood-opacity="0" result="BackgroundImageFix"/>
<feColorMatrix in="SourceAlpha" type="matrix" values="0 0 0 0 0 0 0 0 0 0 0 0 0 0 0 0 0 0 127 0" result="hardAlpha"/>
<feOffset dy="10"/>
<feGaussianBlur stdDeviation="10"/>
<feComposite in2="hardAlpha" operator="out"/>
<feColorMatrix type="matrix" values="0 0 0 0 0.196078 0 0 0 0 0.32549 0 0 0 0 0.54902 0 0 0 0.25 0"/>
<feBlend mode="normal" in2="BackgroundImageFix" result="effect1_dropShadow_1652_2485"/>
<feBlend mode="normal" in="SourceGraphic" in2="effect1_dropShadow_1652_2485" result="shape"/>
</filter>
<linearGradient id="paint0_linear_1652_2485" x1="48.5" y1="82.2754" x2="48.5" y2="9.00001" gradientUnits="userSpaceOnUse">
<stop stop-color="#C5CCDE" stop-opacity="0"/>
<stop offset="1" stop-color="#C5CCDE"/>
</linearGradient>
<linearGradient id="paint1_linear_1652_2485" x1="48.5" y1="73" x2="48.5" y2="9" gradientUnits="userSpaceOnUse">
<stop stop-color="white"/>
<stop offset="1" stop-color="white" stop-opacity="0"/>
</linearGradient>
<linearGradient id="paint2_linear_1652_2485" x1="49" y1="27" x2="49" y2="56" gradientUnits="userSpaceOnUse">
<stop/>
<stop offset="1" stop-opacity="0.5"/>
</linearGradient>
</defs>
</svg>
