<svg width="97" height="102" viewBox="0 0 97 102" fill="none" xmlns="http://www.w3.org/2000/svg">
<g filter="url(#filter0_d_1704_595)">
<path d="M40.5 68.3812C43.4144 70.0638 44.8716 70.9052 46.4209 71.2345C47.7916 71.5258 49.2084 71.5258 50.5791 71.2345C52.1283 70.9052 53.5856 70.0638 56.5 68.3812L68.2128 61.6188C71.1272 59.9362 72.5845 59.0948 73.6443 57.9178C74.582 56.8764 75.2903 55.6495 75.7234 54.3167C76.2128 52.8103 76.2128 51.1277 76.2128 47.7624V34.2376C76.2128 30.8723 76.2128 29.1897 75.7234 27.6833C75.2903 26.3505 74.582 25.1236 73.6443 24.0822C72.5845 22.9052 71.1272 22.0638 68.2128 20.3812L56.5 13.6188C53.5856 11.9362 52.1283 11.0948 50.5791 10.7655C49.2084 10.4742 47.7916 10.4742 46.4209 10.7655C44.8716 11.0948 43.4144 11.9362 40.5 13.6188L28.7872 20.3812C25.8728 22.0638 24.4155 22.9052 23.3557 24.0822C22.418 25.1236 21.7097 26.3505 21.2766 27.6833C20.7872 29.1897 20.7872 30.8723 20.7872 34.2376V47.7624C20.7872 51.1277 20.7872 52.8103 21.2766 54.3167C21.7097 55.6495 22.418 56.8764 23.3557 57.9178C24.4155 59.0948 25.8728 59.9362 28.7872 61.6188L40.5 68.3812Z" fill="url(#paint0_linear_1704_595)" shape-rendering="crispEdges"/>
<path d="M40.5 68.3812C43.4144 70.0638 44.8716 70.9052 46.4209 71.2345C47.7916 71.5258 49.2084 71.5258 50.5791 71.2345C52.1283 70.9052 53.5856 70.0638 56.5 68.3812L68.2128 61.6188C71.1272 59.9362 72.5845 59.0948 73.6443 57.9178C74.582 56.8764 75.2903 55.6495 75.7234 54.3167C76.2128 52.8103 76.2128 51.1277 76.2128 47.7624V34.2376C76.2128 30.8723 76.2128 29.1897 75.7234 27.6833C75.2903 26.3505 74.582 25.1236 73.6443 24.0822C72.5845 22.9052 71.1272 22.0638 68.2128 20.3812L56.5 13.6188C53.5856 11.9362 52.1283 11.0948 50.5791 10.7655C49.2084 10.4742 47.7916 10.4742 46.4209 10.7655C44.8716 11.0948 43.4144 11.9362 40.5 13.6188L28.7872 20.3812C25.8728 22.0638 24.4155 22.9052 23.3557 24.0822C22.418 25.1236 21.7097 26.3505 21.2766 27.6833C20.7872 29.1897 20.7872 30.8723 20.7872 34.2376V47.7624C20.7872 51.1277 20.7872 52.8103 21.2766 54.3167C21.7097 55.6495 22.418 56.8764 23.3557 57.9178C24.4155 59.0948 25.8728 59.9362 28.7872 61.6188L40.5 68.3812Z" stroke="url(#paint1_linear_1704_595)" stroke-opacity="0.6" style="mix-blend-mode:overlay" shape-rendering="crispEdges"/>
</g>
<path d="M44.3242 36.0195C44.125 36.0195 43.9609 35.8906 43.9258 35.6797C43.5273 33.5469 43.5859 33.6172 41.4531 33.1953C41.2422 33.1602 41.1016 32.9961 41.1016 32.7969C41.1016 32.5977 41.2422 32.4453 41.4531 32.4102C43.5859 31.9883 43.5273 32.0586 43.9258 29.9258C43.9609 29.7148 44.125 29.5859 44.3242 29.5859C44.5234 29.5859 44.6875 29.7148 44.7227 29.9258C45.1211 32.0586 45.0625 31.9883 47.1953 32.4102C47.4062 32.4453 47.5469 32.5977 47.5469 32.7969C47.5469 32.9961 47.4062 33.1602 47.1953 33.1953C45.0625 33.6172 45.1211 33.5469 44.7227 35.6797C44.6875 35.8906 44.5234 36.0195 44.3242 36.0195ZM50.6406 45.5469C48.1211 45.5469 46.082 43.5195 46.082 40.9883C46.082 38.7617 47.6875 36.8984 49.8086 36.5117C49.8086 36.4883 49.8086 36.4648 49.8086 36.4297C49.8086 33.3711 52.293 30.8867 55.3398 30.8867C58.4102 30.8867 60.8945 33.3711 60.8945 36.4297C60.8945 39.4883 58.4102 41.9609 55.3398 41.9609C55.2578 41.9609 55.1758 41.9609 55.0937 41.9609C54.6484 44.0117 52.832 45.5469 50.6406 45.5469ZM51.5781 36.4297C51.5781 36.4648 51.5781 36.5 51.5781 36.5352C53.3828 36.9102 54.8008 38.3516 55.1289 40.1914C55.1992 40.1914 55.2695 40.1914 55.3398 40.1914C57.4258 40.1914 59.125 38.5156 59.125 36.4297C59.125 34.332 57.4492 32.6563 55.3398 32.6563C53.2539 32.6563 51.5781 34.3438 51.5781 36.4297ZM39.7305 42.5117C38.0195 42.5117 36.625 41.1172 36.625 39.4063C36.625 37.7188 38.0195 36.3242 39.7305 36.3242C41.418 36.3242 42.8242 37.7188 42.8242 39.4063C42.8242 41.1172 41.418 42.5117 39.7305 42.5117ZM39.7305 40.7422C40.457 40.7422 41.0547 40.1445 41.0547 39.4063C41.0547 38.6914 40.457 38.0938 39.7305 38.0938C38.9922 38.0938 38.3945 38.6914 38.3945 39.4063C38.3945 40.1445 38.9922 40.7422 39.7305 40.7422ZM50.6406 43.7773C52.1875 43.7773 53.4297 42.5469 53.4297 40.9883C53.4297 39.4414 52.1875 38.1992 50.6406 38.1992C49.0937 38.1992 47.8516 39.4414 47.8516 40.9883C47.8516 42.5469 49.0937 43.7773 50.6406 43.7773ZM57.0508 53.4922C56.7812 53.4922 56.582 53.293 56.5586 53.0234C56.207 50.2109 56.1484 50.1641 53.2187 49.6836C52.9258 49.6367 52.7383 49.4492 52.7383 49.1914C52.7383 48.957 52.9141 48.7578 53.1719 48.6992C56.1484 48.1367 56.207 48.1719 56.5586 45.3594C56.582 45.0898 56.7812 44.8906 57.0508 44.8906C57.3086 44.8906 57.5195 45.0781 57.543 45.3477C57.9062 48.2305 57.9648 48.2773 60.9062 48.6992C61.1758 48.7461 61.3633 48.9336 61.3633 49.1914C61.3633 49.4375 61.1758 49.6367 60.918 49.6836C57.9297 50.2578 57.918 50.2344 57.543 53.0469C57.5078 53.3047 57.2969 53.4922 57.0508 53.4922ZM44.3008 53.1172C42.4609 53.1172 40.9609 51.6172 40.9609 49.7773C40.9609 47.9609 42.4609 46.4609 44.3008 46.4609C46.1172 46.4609 47.6172 47.9609 47.6172 49.7773C47.6172 51.6172 46.1172 53.1172 44.3008 53.1172ZM44.3008 51.3359C45.1445 51.3359 45.8477 50.6211 45.8477 49.7773C45.8477 48.9336 45.1445 48.2305 44.3008 48.2305C43.4453 48.2305 42.7305 48.9336 42.7305 49.7773C42.7305 50.6445 43.4336 51.3359 44.3008 51.3359Z" fill="url(#paint2_linear_1704_595)"/>
<defs>
<filter id="filter0_d_1704_595" x="0.28717" y="0.0469971" width="96.4257" height="101.906" filterUnits="userSpaceOnUse" color-interpolation-filters="sRGB">
<feFlood flood-opacity="0" result="BackgroundImageFix"/>
<feColorMatrix in="SourceAlpha" type="matrix" values="0 0 0 0 0 0 0 0 0 0 0 0 0 0 0 0 0 0 127 0" result="hardAlpha"/>
<feOffset dy="10"/>
<feGaussianBlur stdDeviation="10"/>
<feComposite in2="hardAlpha" operator="out"/>
<feColorMatrix type="matrix" values="0 0 0 0 0.196078 0 0 0 0 0.32549 0 0 0 0 0.54902 0 0 0 0.25 0"/>
<feBlend mode="normal" in2="BackgroundImageFix" result="effect1_dropShadow_1704_595"/>
<feBlend mode="normal" in="SourceGraphic" in2="effect1_dropShadow_1704_595" result="shape"/>
</filter>
<linearGradient id="paint0_linear_1704_595" x1="48.5" y1="82.2754" x2="48.5" y2="9.00001" gradientUnits="userSpaceOnUse">
<stop stop-color="#C5CCDE" stop-opacity="0"/>
<stop offset="1" stop-color="#C5CCDE"/>
</linearGradient>
<linearGradient id="paint1_linear_1704_595" x1="48.5" y1="73" x2="48.5" y2="9" gradientUnits="userSpaceOnUse">
<stop stop-color="white"/>
<stop offset="1" stop-color="white" stop-opacity="0"/>
</linearGradient>
<linearGradient id="paint2_linear_1704_595" x1="49" y1="27" x2="49" y2="56" gradientUnits="userSpaceOnUse">
<stop/>
<stop offset="1" stop-opacity="0.5"/>
</linearGradient>
</defs>
</svg>
