<svg width="97" height="102" viewBox="0 0 97 102" fill="none" xmlns="http://www.w3.org/2000/svg">
<g filter="url(#filter0_d_1704_489)">
<path d="M40.5 68.3812C43.4144 70.0638 44.8716 70.9052 46.4209 71.2345C47.7916 71.5258 49.2084 71.5258 50.5791 71.2345C52.1283 70.9052 53.5856 70.0638 56.5 68.3812L68.2128 61.6188C71.1272 59.9362 72.5845 59.0948 73.6443 57.9178C74.582 56.8764 75.2903 55.6495 75.7234 54.3167C76.2128 52.8103 76.2128 51.1277 76.2128 47.7624V34.2376C76.2128 30.8723 76.2128 29.1897 75.7234 27.6833C75.2903 26.3505 74.582 25.1236 73.6443 24.0822C72.5845 22.9052 71.1272 22.0638 68.2128 20.3812L56.5 13.6188C53.5856 11.9362 52.1283 11.0948 50.5791 10.7655C49.2084 10.4742 47.7916 10.4742 46.4209 10.7655C44.8716 11.0948 43.4144 11.9362 40.5 13.6188L28.7872 20.3812C25.8728 22.0638 24.4155 22.9052 23.3557 24.0822C22.418 25.1236 21.7097 26.3505 21.2766 27.6833C20.7872 29.1897 20.7872 30.8723 20.7872 34.2376V47.7624C20.7872 51.1277 20.7872 52.8103 21.2766 54.3167C21.7097 55.6495 22.418 56.8764 23.3557 57.9178C24.4155 59.0948 25.8728 59.9362 28.7872 61.6188L40.5 68.3812Z" fill="url(#paint0_linear_1704_489)" shape-rendering="crispEdges"/>
<path d="M40.5 68.3812C43.4144 70.0638 44.8716 70.9052 46.4209 71.2345C47.7916 71.5258 49.2084 71.5258 50.5791 71.2345C52.1283 70.9052 53.5856 70.0638 56.5 68.3812L68.2128 61.6188C71.1272 59.9362 72.5845 59.0948 73.6443 57.9178C74.582 56.8764 75.2903 55.6495 75.7234 54.3167C76.2128 52.8103 76.2128 51.1277 76.2128 47.7624V34.2376C76.2128 30.8723 76.2128 29.1897 75.7234 27.6833C75.2903 26.3505 74.582 25.1236 73.6443 24.0822C72.5845 22.9052 71.1272 22.0638 68.2128 20.3812L56.5 13.6188C53.5856 11.9362 52.1283 11.0948 50.5791 10.7655C49.2084 10.4742 47.7916 10.4742 46.4209 10.7655C44.8716 11.0948 43.4144 11.9362 40.5 13.6188L28.7872 20.3812C25.8728 22.0638 24.4155 22.9052 23.3557 24.0822C22.418 25.1236 21.7097 26.3505 21.2766 27.6833C20.7872 29.1897 20.7872 30.8723 20.7872 34.2376V47.7624C20.7872 51.1277 20.7872 52.8103 21.2766 54.3167C21.7097 55.6495 22.418 56.8764 23.3557 57.9178C24.4155 59.0948 25.8728 59.9362 28.7872 61.6188L40.5 68.3812Z" stroke="url(#paint1_linear_1704_489)" stroke-opacity="0.6" style="mix-blend-mode:overlay" shape-rendering="crispEdges"/>
</g>
<path d="M42.2422 54.1016C39.8633 54.1016 38.6445 52.8945 38.6445 50.4805L38.6445 32.668C38.6445 30.2188 39.8516 28.9883 42.2773 28.9883L54.7227 28.9883C57.1484 28.9883 58.3555 30.2305 58.3555 32.668L58.3555 46.1094C58.3555 47.2813 57.8164 47.8555 57.3711 48.3008C55.918 49.7656 56.2227 51.6758 57.6992 52.2617C58.0742 52.3906 58.3555 52.7539 58.3555 53.1641C58.3555 53.6914 57.9336 54.1016 57.418 54.1016L42.2422 54.1016ZM54.6289 30.875L43.4492 30.875L43.4492 46.8477L55.4492 46.8477C56.1055 46.8477 56.4687 46.4844 56.4687 45.8516L56.4687 32.7031C56.4687 31.5313 55.8477 30.875 54.6289 30.875ZM40.5312 47.3281C40.9297 47.082 41.375 46.9297 41.9141 46.8711L41.9141 30.9102C41 31.0625 40.5312 31.6836 40.5312 32.7031L40.5312 47.3281ZM45.5469 36.5C45.125 36.5 44.7852 36.1484 44.7852 35.7266C44.7852 35.3047 45.125 34.9648 45.5469 34.9648L54.3359 34.9648C54.7578 34.9648 55.0977 35.3047 55.0977 35.7266C55.0977 36.1484 54.7578 36.5 54.3359 36.5L45.5469 36.5ZM45.5469 39.7227C45.125 39.7227 44.7852 39.3711 44.7852 38.9492C44.7852 38.5273 45.125 38.1875 45.5469 38.1875L52.2148 38.1875C52.6367 38.1875 52.9766 38.5273 52.9766 38.9492C52.9766 39.3711 52.6367 39.7227 52.2148 39.7227L45.5469 39.7227ZM42.3477 52.2148L55.0508 52.2148C54.4297 51.207 54.3359 49.918 54.8867 48.6992C54.7695 48.7227 54.6289 48.7344 54.4766 48.7344L42.4531 48.7344C41.2812 48.7344 40.5312 49.4141 40.5312 50.4688C40.5312 51.582 41.1641 52.2148 42.3477 52.2148Z" fill="url(#paint2_linear_1704_489)" style="mix-blend-mode:overlay"/>
<defs>
<filter id="filter0_d_1704_489" x="0.287231" y="0.0469971" width="96.4255" height="101.906" filterUnits="userSpaceOnUse" color-interpolation-filters="sRGB">
<feFlood flood-opacity="0" result="BackgroundImageFix"/>
<feColorMatrix in="SourceAlpha" type="matrix" values="0 0 0 0 0 0 0 0 0 0 0 0 0 0 0 0 0 0 127 0" result="hardAlpha"/>
<feOffset dy="10"/>
<feGaussianBlur stdDeviation="10"/>
<feComposite in2="hardAlpha" operator="out"/>
<feColorMatrix type="matrix" values="0 0 0 0 0.196078 0 0 0 0 0.32549 0 0 0 0 0.54902 0 0 0 0.25 0"/>
<feBlend mode="normal" in2="BackgroundImageFix" result="effect1_dropShadow_1704_489"/>
<feBlend mode="normal" in="SourceGraphic" in2="effect1_dropShadow_1704_489" result="shape"/>
</filter>
<linearGradient id="paint0_linear_1704_489" x1="48.5" y1="82.2754" x2="48.5" y2="9.00001" gradientUnits="userSpaceOnUse">
<stop stop-color="#C5CCDE" stop-opacity="0"/>
<stop offset="1" stop-color="#C5CCDE"/>
</linearGradient>
<linearGradient id="paint1_linear_1704_489" x1="48.5" y1="73" x2="48.5" y2="9" gradientUnits="userSpaceOnUse">
<stop stop-color="white"/>
<stop offset="1" stop-color="white" stop-opacity="0"/>
</linearGradient>
<linearGradient id="paint2_linear_1704_489" x1="48.5" y1="27" x2="48.5" y2="56" gradientUnits="userSpaceOnUse">
<stop/>
<stop offset="1" stop-opacity="0.5"/>
</linearGradient>
</defs>
</svg>
