<svg width="20" height="18" viewBox="0 0 20 18" fill="none" xmlns="http://www.w3.org/2000/svg">
<path fill-rule="evenodd" clip-rule="evenodd" d="M10 13.5C12.4546 13.5 14.4444 11.4853 14.4444 9C14.4444 6.51472 12.4546 4.5 10 4.5C7.5454 4.5 5.55556 6.51472 5.55556 9C5.55556 11.4853 7.5454 13.5 10 13.5ZM10.0001 11.7001C11.4729 11.7001 12.6668 10.4913 12.6668 9.00011C12.6668 7.50894 11.4729 6.30011 10.0001 6.30011C8.52735 6.30011 7.33344 7.50894 7.33344 9.00011C7.33344 10.4913 8.52735 11.7001 10.0001 11.7001Z" fill="url(#paint0_linear_1671_1777)"/>
<path fill-rule="evenodd" clip-rule="evenodd" d="M1.54259 6.22212C0.61508 5.62282 0 4.57164 0 3.375C0 1.51104 1.49238 0 3.33333 0C4.29841 0 5.16769 0.415252 5.7764 1.07891C7.03273 0.390721 8.4713 0 10 0C11.5287 0 12.9673 0.390722 14.2236 1.07891C14.8323 0.415253 15.7016 0 16.6667 0C18.5076 0 20 1.51104 20 3.375C20 4.57164 19.3849 5.62281 18.4574 6.22211C18.7375 7.09701 18.8889 8.0306 18.8889 9C18.8889 9.9694 18.7375 10.903 18.4574 11.7779C19.3849 12.3772 20 13.4284 20 14.625C20 16.489 18.5076 18 16.6667 18C15.7016 18 14.8323 17.5847 14.2236 16.9211C12.9673 17.6093 11.5287 18 10 18C5.0908 18 1.11111 13.9706 1.11111 9C1.11111 8.03061 1.26248 7.09701 1.54259 6.22212ZM2.51782 4.13909C2.91739 3.50987 3.39228 2.93434 3.92958 2.42553C3.75731 2.31439 3.55275 2.25 3.33333 2.25C2.71968 2.25 2.22222 2.75368 2.22222 3.375C2.22222 3.66999 2.33436 3.93846 2.51782 4.13909ZM16.0704 15.5745C16.2427 15.6856 16.4473 15.75 16.6667 15.75C17.2803 15.75 17.7778 15.2463 17.7778 14.625C17.7778 14.33 17.6656 14.0615 17.4822 13.8609C17.0826 14.4901 16.6077 15.0657 16.0704 15.5745ZM16.0704 2.42554C16.6077 2.93434 17.0826 3.50987 17.4822 4.13909C17.6656 3.93845 17.7778 3.66999 17.7778 3.375C17.7778 2.75368 17.2803 2.25 16.6667 2.25C16.4473 2.25 16.2427 2.3144 16.0704 2.42554ZM10 15.75C13.6819 15.75 16.6667 12.7279 16.6667 9C16.6667 5.27208 13.6819 2.25 10 2.25C6.3181 2.25 3.33333 5.27208 3.33333 9C3.33333 12.7279 6.3181 15.75 10 15.75Z" fill="url(#paint1_linear_1671_1777)"/>
<defs>
<linearGradient id="paint0_linear_1671_1777" x1="0" y1="0" x2="19.0432" y2="22.6704" gradientUnits="userSpaceOnUse">
<stop stop-color="white"/>
<stop offset="1" stop-color="white" stop-opacity="0"/>
</linearGradient>
<linearGradient id="paint1_linear_1671_1777" x1="0" y1="0" x2="19.0432" y2="22.6704" gradientUnits="userSpaceOnUse">
<stop stop-color="white"/>
<stop offset="1" stop-color="white" stop-opacity="0"/>
</linearGradient>
</defs>
</svg>
