<svg width="20" height="16" viewBox="0 0 20 16" fill="none" xmlns="http://www.w3.org/2000/svg">
<path d="M4 4H6V6H4V4Z" fill="url(#paint0_linear_1671_1775)"/>
<path d="M9 4H7V6H9V4Z" fill="url(#paint1_linear_1671_1775)"/>
<path d="M11 4H13V6H11V4Z" fill="url(#paint2_linear_1671_1775)"/>
<path d="M16 4H14V6H16V4Z" fill="url(#paint3_linear_1671_1775)"/>
<path d="M4 7H6V9H4V7Z" fill="url(#paint4_linear_1671_1775)"/>
<path d="M9 7H7V9H9V7Z" fill="url(#paint5_linear_1671_1775)"/>
<path d="M11 7H13V9H11V7Z" fill="url(#paint6_linear_1671_1775)"/>
<path d="M16 7H14V9H16V7Z" fill="url(#paint7_linear_1671_1775)"/>
<path d="M4 10H6V12H4V10Z" fill="url(#paint8_linear_1671_1775)"/>
<path d="M9 10H7V12H9V10Z" fill="url(#paint9_linear_1671_1775)"/>
<path d="M11 10H13V12H11V10Z" fill="url(#paint10_linear_1671_1775)"/>
<path d="M16 10H14V12H16V10Z" fill="url(#paint11_linear_1671_1775)"/>
<path fill-rule="evenodd" clip-rule="evenodd" d="M1 0C0.447715 0 0 0.447715 0 1V15C0 15.5523 0.447716 16 1 16H19C19.5523 16 20 15.5523 20 15V1C20 0.447715 19.5523 0 19 0H1ZM2 2V14H18V2H2Z" fill="url(#paint12_linear_1671_1775)"/>
<defs>
<linearGradient id="paint0_linear_1671_1775" x1="0" y1="0" x2="16.4771" y2="22.0675" gradientUnits="userSpaceOnUse">
<stop stop-color="white"/>
<stop offset="1" stop-color="white" stop-opacity="0"/>
</linearGradient>
<linearGradient id="paint1_linear_1671_1775" x1="0" y1="0" x2="16.4771" y2="22.0675" gradientUnits="userSpaceOnUse">
<stop stop-color="white"/>
<stop offset="1" stop-color="white" stop-opacity="0"/>
</linearGradient>
<linearGradient id="paint2_linear_1671_1775" x1="0" y1="0" x2="16.4771" y2="22.0675" gradientUnits="userSpaceOnUse">
<stop stop-color="white"/>
<stop offset="1" stop-color="white" stop-opacity="0"/>
</linearGradient>
<linearGradient id="paint3_linear_1671_1775" x1="0" y1="0" x2="16.4771" y2="22.0675" gradientUnits="userSpaceOnUse">
<stop stop-color="white"/>
<stop offset="1" stop-color="white" stop-opacity="0"/>
</linearGradient>
<linearGradient id="paint4_linear_1671_1775" x1="0" y1="0" x2="16.4771" y2="22.0675" gradientUnits="userSpaceOnUse">
<stop stop-color="white"/>
<stop offset="1" stop-color="white" stop-opacity="0"/>
</linearGradient>
<linearGradient id="paint5_linear_1671_1775" x1="0" y1="0" x2="16.4771" y2="22.0675" gradientUnits="userSpaceOnUse">
<stop stop-color="white"/>
<stop offset="1" stop-color="white" stop-opacity="0"/>
</linearGradient>
<linearGradient id="paint6_linear_1671_1775" x1="0" y1="0" x2="16.4771" y2="22.0675" gradientUnits="userSpaceOnUse">
<stop stop-color="white"/>
<stop offset="1" stop-color="white" stop-opacity="0"/>
</linearGradient>
<linearGradient id="paint7_linear_1671_1775" x1="0" y1="0" x2="16.4771" y2="22.0675" gradientUnits="userSpaceOnUse">
<stop stop-color="white"/>
<stop offset="1" stop-color="white" stop-opacity="0"/>
</linearGradient>
<linearGradient id="paint8_linear_1671_1775" x1="0" y1="0" x2="16.4771" y2="22.0675" gradientUnits="userSpaceOnUse">
<stop stop-color="white"/>
<stop offset="1" stop-color="white" stop-opacity="0"/>
</linearGradient>
<linearGradient id="paint9_linear_1671_1775" x1="0" y1="0" x2="16.4771" y2="22.0675" gradientUnits="userSpaceOnUse">
<stop stop-color="white"/>
<stop offset="1" stop-color="white" stop-opacity="0"/>
</linearGradient>
<linearGradient id="paint10_linear_1671_1775" x1="0" y1="0" x2="16.4771" y2="22.0675" gradientUnits="userSpaceOnUse">
<stop stop-color="white"/>
<stop offset="1" stop-color="white" stop-opacity="0"/>
</linearGradient>
<linearGradient id="paint11_linear_1671_1775" x1="0" y1="0" x2="16.4771" y2="22.0675" gradientUnits="userSpaceOnUse">
<stop stop-color="white"/>
<stop offset="1" stop-color="white" stop-opacity="0"/>
</linearGradient>
<linearGradient id="paint12_linear_1671_1775" x1="0" y1="0" x2="16.4771" y2="22.0675" gradientUnits="userSpaceOnUse">
<stop stop-color="white"/>
<stop offset="1" stop-color="white" stop-opacity="0"/>
</linearGradient>
</defs>
</svg>
