<svg width="20" height="20" viewBox="0 0 20 20" fill="none" xmlns="http://www.w3.org/2000/svg">
<path fill-rule="evenodd" clip-rule="evenodd" d="M10 5.82715C7.6954 5.82715 5.82715 7.6954 5.82715 10C5.82715 12.3046 7.6954 14.1728 10 14.1728C12.3046 14.1728 14.1728 12.3046 14.1728 10C14.1728 7.6954 12.3046 5.82715 10 5.82715ZM7.91358 10C7.91358 8.8477 8.8477 7.91358 10 7.91358C11.1523 7.91358 12.0864 8.8477 12.0864 10C12.0864 11.1523 11.1523 12.0864 10 12.0864C8.8477 12.0864 7.91358 11.1523 7.91358 10Z" fill="url(#paint0_linear_1671_1771)"/>
<path fill-rule="evenodd" clip-rule="evenodd" d="M0.305549 10.7377C-0.10185 10.3303 -0.101849 9.66974 0.30555 9.26234L9.26234 0.305549C9.66974 -0.10185 10.3303 -0.101849 10.7377 0.30555L19.6944 9.26234C20.1018 9.66974 20.1018 10.3303 19.6944 10.7377L10.7377 19.6944C10.3303 20.1018 9.66974 20.1018 9.26234 19.6944L0.305549 10.7377ZM10.0707 17.4108C10.0317 17.4498 9.96834 17.4498 9.92929 17.4108L2.58925 10.0707C2.55019 10.0317 2.55019 9.96834 2.58925 9.92929L9.92929 2.58925C9.96834 2.55019 10.0317 2.55019 10.0707 2.58925L17.4108 9.92929C17.4498 9.96834 17.4498 10.0317 17.4108 10.0707L10.0707 17.4108Z" fill="url(#paint1_linear_1671_1771)"/>
<defs>
<linearGradient id="paint0_linear_1671_1771" x1="0" y1="0" x2="21.4305" y2="22.9612" gradientUnits="userSpaceOnUse">
<stop stop-color="white"/>
<stop offset="1" stop-color="white" stop-opacity="0"/>
</linearGradient>
<linearGradient id="paint1_linear_1671_1771" x1="0" y1="0" x2="21.4305" y2="22.9612" gradientUnits="userSpaceOnUse">
<stop stop-color="white"/>
<stop offset="1" stop-color="white" stop-opacity="0"/>
</linearGradient>
</defs>
</svg>
