<svg width="18" height="18" viewBox="0 0 18 18" fill="none" xmlns="http://www.w3.org/2000/svg">
<path d="M4 4.52962C4 4.25166 4.22386 4.02633 4.5 4.02633H13.5C13.7761 4.02633 14 4.25166 14 4.52962C14 4.80758 13.7761 5.03292 13.5 5.03292H4.5C4.22386 5.03292 4 4.80758 4 4.52962Z" fill="url(#paint0_linear_1671_1783)"/>
<path d="M4.5 7.04608C4.22386 7.04608 4 7.27141 4 7.54937C4 7.82733 4.22386 8.05267 4.5 8.05267H13.5C13.7761 8.05267 14 7.82733 14 7.54937C14 7.27141 13.7761 7.04608 13.5 7.04608H4.5Z" fill="url(#paint1_linear_1671_1783)"/>
<path d="M4 10.5691C4 10.2912 4.22386 10.0658 4.5 10.0658H13.5C13.7761 10.0658 14 10.2912 14 10.5691C14 10.8471 13.7761 11.0724 13.5 11.0724H4.5C4.22386 11.0724 4 10.8471 4 10.5691Z" fill="url(#paint2_linear_1671_1783)"/>
<path fill-rule="evenodd" clip-rule="evenodd" d="M2 0C0.895431 0 0 0.901325 0 2.01317V13.0856C0 14.1974 0.89543 15.0987 2 15.0987H13.0993L14.0238 17.3742C14.2328 17.8887 14.8167 18.1353 15.3279 17.9248C15.8391 17.7144 16.084 17.1267 15.875 16.6121L15.2601 15.0987H16C17.1046 15.0987 18 14.1974 18 13.0856V2.01317C18 0.901325 17.1046 0 16 0H2ZM16 2.01317H2L2 13.0856H16V2.01317Z" fill="url(#paint3_linear_1671_1783)"/>
<defs>
<linearGradient id="paint0_linear_1671_1783" x1="0" y1="0" x2="19.2874" y2="20.6651" gradientUnits="userSpaceOnUse">
<stop stop-color="white"/>
<stop offset="1" stop-color="white" stop-opacity="0"/>
</linearGradient>
<linearGradient id="paint1_linear_1671_1783" x1="0" y1="0" x2="19.2874" y2="20.6651" gradientUnits="userSpaceOnUse">
<stop stop-color="white"/>
<stop offset="1" stop-color="white" stop-opacity="0"/>
</linearGradient>
<linearGradient id="paint2_linear_1671_1783" x1="0" y1="0" x2="19.2874" y2="20.6651" gradientUnits="userSpaceOnUse">
<stop stop-color="white"/>
<stop offset="1" stop-color="white" stop-opacity="0"/>
</linearGradient>
<linearGradient id="paint3_linear_1671_1783" x1="0" y1="0" x2="19.2874" y2="20.6651" gradientUnits="userSpaceOnUse">
<stop stop-color="white"/>
<stop offset="1" stop-color="white" stop-opacity="0"/>
</linearGradient>
</defs>
</svg>
