<svg width="21" height="20" viewBox="0 0 21 20" fill="none" xmlns="http://www.w3.org/2000/svg">
<path d="M7.54887 14.1253C8.09216 14.1253 8.53258 13.6869 8.53258 13.1461C8.53258 12.6054 8.09216 12.167 7.54887 12.167C7.00558 12.167 6.56515 12.6054 6.56515 13.1461C6.56515 13.6869 7.00558 14.1253 7.54887 14.1253Z" fill="url(#paint0_linear_1671_1769)"/>
<path d="M14.4348 13.1461C14.4348 13.6869 13.9944 14.1253 13.4511 14.1253C12.9078 14.1253 12.4674 13.6869 12.4674 13.1461C12.4674 12.6054 12.9078 12.167 13.4511 12.167C13.9944 12.167 14.4348 12.6054 14.4348 13.1461Z" fill="url(#paint1_linear_1671_1769)"/>
<path d="M10.5 7.27141C11.0433 7.27141 11.4837 6.83304 11.4837 6.29229C11.4837 5.75153 11.0433 5.31316 10.5 5.31316C9.95671 5.31316 9.51629 5.75153 9.51629 6.29229C9.51629 6.83304 9.95671 7.27141 10.5 7.27141Z" fill="url(#paint2_linear_1671_1769)"/>
<path fill-rule="evenodd" clip-rule="evenodd" d="M11.8058 0.784649C11.2525 -0.261558 9.74745 -0.261542 9.19424 0.784651L0.171822 17.8473C-0.345335 18.8253 0.367202 20 1.47758 20H19.5224C20.6328 20 21.3453 18.8253 20.8282 17.8473L11.8058 0.784649ZM2.29227 18.0418L10.4116 2.687C10.4491 2.61599 10.5509 2.61599 10.5884 2.687L18.7077 18.0418H17.6524L17.386 17.5522L16.3236 15.7898C16.1346 15.4763 15.6795 15.4722 15.4848 15.7823L14.066 18.0418H13.7144L11.3185 14.4647C10.9291 13.8834 10.0709 13.8834 9.6815 14.4647L7.28563 18.0418H6.83158L6.56515 17.5522L5.50279 15.7898C5.31377 15.4763 4.85865 15.4722 4.66393 15.7823L3.24513 18.0418H2.29227ZM10.4169 15.1319C10.4565 15.0727 10.5435 15.0727 10.5831 15.1319L12.5321 18.0418H11.7604L10.805 16.5797C10.652 16.3455 10.3079 16.3443 10.1532 16.5775L9.182 18.0418H8.46791L10.4169 15.1319Z" fill="url(#paint3_linear_1671_1769)"/>
<defs>
<linearGradient id="paint0_linear_1671_1769" x1="0" y1="0" x2="21.3333" y2="24" gradientUnits="userSpaceOnUse">
<stop stop-color="white"/>
<stop offset="1" stop-color="white" stop-opacity="0"/>
</linearGradient>
<linearGradient id="paint1_linear_1671_1769" x1="0" y1="0" x2="21.3333" y2="24" gradientUnits="userSpaceOnUse">
<stop stop-color="white"/>
<stop offset="1" stop-color="white" stop-opacity="0"/>
</linearGradient>
<linearGradient id="paint2_linear_1671_1769" x1="0" y1="0" x2="21.3333" y2="24" gradientUnits="userSpaceOnUse">
<stop stop-color="white"/>
<stop offset="1" stop-color="white" stop-opacity="0"/>
</linearGradient>
<linearGradient id="paint3_linear_1671_1769" x1="0" y1="0" x2="21.3333" y2="24" gradientUnits="userSpaceOnUse">
<stop stop-color="white"/>
<stop offset="1" stop-color="white" stop-opacity="0"/>
</linearGradient>
</defs>
</svg>
